<?xml version="1.0" encoding="UTF-8" standalone="no"?>
<!DOCTYPE svg PUBLIC "-//W3C//DTD SVG 1.1//EN"
 "http://www.w3.org/Graphics/SVG/1.1/DTD/svg11.dtd">
<!-- Generated by graphviz version 2.40.1 (20161225.0304)
 -->
<!-- Title: blog_calvin Pages: 1 -->
<svg width="1876pt" height="920pt"
 viewBox="0.00 0.00 1876.00 920.00" xmlns="http://www.w3.org/2000/svg" xmlns:xlink="http://www.w3.org/1999/xlink">
<g id="graph0" class="graph" transform="scale(1 1) rotate(0) translate(4 916)">
<title>blog_calvin</title>
<polygon fill="#ffffff" stroke="transparent" points="-4,4 -4,-916 1872,-916 1872,4 -4,4"/>
<!-- Mixpanel -->
<g id="node1" class="node">
<title>Mixpanel</title>
<ellipse fill="none" stroke="#000000" cx="1109.5586" cy="-472.8383" rx="43.9992" ry="18"/>
<text text-anchor="middle" x="1109.5586" y="-468.6383" font-family="Times,serif" font-size="14.00" fill="#000000">Mixpanel</text>
</g>
<!-- sss -->
<g id="node2" class="node">
<title>sss</title>
<ellipse fill="none" stroke="#000000" cx="1380.7342" cy="-348.9584" rx="27" ry="18"/>
<text text-anchor="middle" x="1380.7342" y="-344.7584" font-family="Times,serif" font-size="14.00" fill="#000000">sss</text>
</g>
<!-- Mixpanel&#45;&#45;sss -->
<g id="edge1" class="edge">
<title>Mixpanel&#45;&#45;sss</title>
<path fill="none" stroke="#000000" d="M1139.0954,-459.3452C1193.7292,-434.387 1309.438,-381.5283 1358.256,-359.227"/>
</g>
<!-- calvinfo_com -->
<g id="node4" class="node">
<title>calvinfo_com</title>
<ellipse fill="none" stroke="#000000" cx="763.9463" cy="-460.9709" rx="58.9581" ry="18"/>
<text text-anchor="middle" x="763.9463" y="-456.7709" font-family="Times,serif" font-size="14.00" fill="#000000">calvinfo_com</text>
</g>
<!-- Mixpanel&#45;&#45;calvinfo_com -->
<g id="edge23" class="edge">
<title>Mixpanel&#45;&#45;calvinfo_com</title>
<path fill="none" stroke="#000000" d="M1065.4355,-471.3232C1003.654,-469.2018 891.2457,-465.342 822.5148,-462.982"/>
</g>
<!-- onboarding_june_30 -->
<g id="node15" class="node">
<title>onboarding_june_30</title>
<ellipse fill="none" stroke="#000000" cx="1270.6622" cy="-699.9777" rx="83.0977" ry="18"/>
<text text-anchor="middle" x="1270.6622" y="-695.7777" font-family="Times,serif" font-size="14.00" fill="#000000">onboarding_june_30</text>
</g>
<!-- Mixpanel&#45;&#45;onboarding_june_30 -->
<g id="edge12" class="edge">
<title>Mixpanel&#45;&#45;onboarding_june_30</title>
<path fill="none" stroke="#000000" d="M1121.9326,-490.2844C1151.8469,-532.4604 1227.8401,-639.6029 1258.0238,-682.1589"/>
</g>
<!-- test_onboarding -->
<g id="node16" class="node">
<title>test_onboarding</title>
<ellipse fill="none" stroke="#000000" cx="1129.6593" cy="-751.584" rx="67.177" ry="18"/>
<text text-anchor="middle" x="1129.6593" y="-747.384" font-family="Times,serif" font-size="14.00" fill="#000000">test_onboarding</text>
</g>
<!-- Mixpanel&#45;&#45;test_onboarding -->
<g id="edge13" class="edge">
<title>Mixpanel&#45;&#45;test_onboarding</title>
<path fill="none" stroke="#000000" d="M1110.8775,-491.1276C1114.5196,-541.6346 1124.6877,-682.64 1128.3356,-733.2274"/>
</g>
<!-- Python -->
<g id="node19" class="node">
<title>Python</title>
<ellipse fill="none" stroke="#000000" cx="1047.9259" cy="-227.8325" rx="35.3389" ry="18"/>
<text text-anchor="middle" x="1047.9259" y="-223.6325" font-family="Times,serif" font-size="14.00" fill="#000000">Python</text>
</g>
<!-- Mixpanel&#45;&#45;Python -->
<g id="edge37" class="edge">
<title>Mixpanel&#45;&#45;Python</title>
<path fill="none" stroke="#000000" d="M1105.0266,-454.8225C1093.6289,-409.5134 1063.8695,-291.2122 1052.4646,-245.8748"/>
</g>
<!-- Test_Python_Source -->
<g id="node25" class="node">
<title>Test_Python_Source</title>
<ellipse fill="none" stroke="#000000" cx="983.4917" cy="-704.3815" rx="83.3558" ry="18"/>
<text text-anchor="middle" x="983.4917" y="-700.1815" font-family="Times,serif" font-size="14.00" fill="#000000">Test_Python_Source</text>
</g>
<!-- Mixpanel&#45;&#45;Test_Python_Source -->
<g id="edge21" class="edge">
<title>Mixpanel&#45;&#45;Test_Python_Source</title>
<path fill="none" stroke="#000000" d="M1099.8757,-490.6227C1076.4672,-533.6164 1017.0009,-642.8362 993.3815,-686.2172"/>
</g>
<!-- Zaius -->
<g id="node3" class="node">
<title>Zaius</title>
<ellipse fill="none" stroke="#000000" cx="658.2135" cy="-304.6551" rx="29.5104" ry="18"/>
<text text-anchor="middle" x="658.2135" y="-300.4551" font-family="Times,serif" font-size="14.00" fill="#000000">Zaius</text>
</g>
<!-- Zaius&#45;&#45;calvinfo_com -->
<g id="edge2" class="edge">
<title>Zaius&#45;&#45;calvinfo_com</title>
<path fill="none" stroke="#000000" d="M669.5287,-321.3837C689.5597,-350.9975 731.0902,-412.3963 751.74,-442.925"/>
</g>
<!-- Amazon_S3 -->
<g id="node5" class="node">
<title>Amazon_S3</title>
<ellipse fill="none" stroke="#000000" cx="1090.4683" cy="-359.3127" rx="53.6557" ry="18"/>
<text text-anchor="middle" x="1090.4683" y="-355.1127" font-family="Times,serif" font-size="14.00" fill="#000000">Amazon_S3</text>
</g>
<!-- Amazon_S3&#45;&#45;sss -->
<g id="edge29" class="edge">
<title>Amazon_S3&#45;&#45;sss</title>
<path fill="none" stroke="#000000" d="M1144.0458,-357.4015C1206.1298,-355.1869 1305.993,-351.6246 1353.6858,-349.9233"/>
</g>
<!-- Amazon_S3&#45;&#45;calvinfo_com -->
<g id="edge3" class="edge">
<title>Amazon_S3&#45;&#45;calvinfo_com</title>
<path fill="none" stroke="#000000" d="M1050.7568,-371.6764C988.467,-391.0694 868.3925,-428.453 805.1774,-448.1341"/>
</g>
<!-- Amazon_S3&#45;&#45;Python -->
<g id="edge16" class="edge">
<title>Amazon_S3&#45;&#45;Python</title>
<path fill="none" stroke="#000000" d="M1084.6422,-341.3066C1076.4954,-316.1284 1061.7905,-270.6821 1053.6817,-245.6211"/>
</g>
<!-- Google_Analytics -->
<g id="node6" class="node">
<title>Google_Analytics</title>
<ellipse fill="none" stroke="#000000" cx="452.1211" cy="-326.833" rx="74.4103" ry="18"/>
<text text-anchor="middle" x="452.1211" y="-322.633" font-family="Times,serif" font-size="14.00" fill="#000000">Google_Analytics</text>
</g>
<!-- Google_Analytics&#45;&#45;calvinfo_com -->
<g id="edge14" class="edge">
<title>Google_Analytics&#45;&#45;calvinfo_com</title>
<path fill="none" stroke="#000000" d="M488.8084,-342.6148C549.6638,-368.793 670.6288,-420.8285 729.7781,-446.2727"/>
</g>
<!-- testing_setup_flow -->
<g id="node7" class="node">
<title>testing_setup_flow</title>
<ellipse fill="none" stroke="#000000" cx="166.0174" cy="-206.5298" rx="76.8502" ry="18"/>
<text text-anchor="middle" x="166.0174" y="-202.3298" font-family="Times,serif" font-size="14.00" fill="#000000">testing_setup_flow</text>
</g>
<!-- Google_Analytics&#45;&#45;testing_setup_flow -->
<g id="edge4" class="edge">
<title>Google_Analytics&#45;&#45;testing_setup_flow</title>
<path fill="none" stroke="#000000" d="M414.718,-311.1055C359.8865,-288.0495 258.2664,-245.3194 203.4296,-222.2612"/>
</g>
<!-- Iterable -->
<g id="node8" class="node">
<title>Iterable</title>
<ellipse fill="none" stroke="#000000" cx="562.8802" cy="-401.2397" rx="37.2161" ry="18"/>
<text text-anchor="middle" x="562.8802" y="-397.0397" font-family="Times,serif" font-size="14.00" fill="#000000">Iterable</text>
</g>
<!-- Iterable&#45;&#45;calvinfo_com -->
<g id="edge5" class="edge">
<title>Iterable&#45;&#45;calvinfo_com</title>
<path fill="none" stroke="#000000" d="M594.7397,-410.7043C629.0669,-420.902 683.8559,-437.1782 721.7446,-448.4339"/>
</g>
<!-- AdRoll -->
<g id="node9" class="node">
<title>AdRoll</title>
<ellipse fill="none" stroke="#000000" cx="1100.6919" cy="-407.4694" rx="36.2992" ry="18"/>
<text text-anchor="middle" x="1100.6919" y="-403.2694" font-family="Times,serif" font-size="14.00" fill="#000000">AdRoll</text>
</g>
<!-- AdRoll&#45;&#45;sss -->
<g id="edge33" class="edge">
<title>AdRoll&#45;&#45;sss</title>
<path fill="none" stroke="#000000" d="M1134.1934,-400.4698C1190.6685,-388.6701 1303.6421,-365.0658 1354.663,-354.4056"/>
</g>
<!-- AdRoll&#45;&#45;calvinfo_com -->
<g id="edge6" class="edge">
<title>AdRoll&#45;&#45;calvinfo_com</title>
<path fill="none" stroke="#000000" d="M1066.2368,-412.9436C1007.0644,-422.3448 885.7927,-441.6122 816.1782,-452.6724"/>
</g>
<!-- FoxMetrics -->
<g id="node10" class="node">
<title>FoxMetrics</title>
<ellipse fill="none" stroke="#000000" cx="1598.2249" cy="-297.8609" rx="50.7655" ry="18"/>
<text text-anchor="middle" x="1598.2249" y="-293.6609" font-family="Times,serif" font-size="14.00" fill="#000000">FoxMetrics</text>
</g>
<!-- FoxMetrics&#45;&#45;sss -->
<g id="edge7" class="edge">
<title>FoxMetrics&#45;&#45;sss</title>
<path fill="none" stroke="#000000" d="M1555.7742,-307.8343C1511.3944,-318.261 1443.1933,-334.2842 1406.3955,-342.9295"/>
</g>
<!-- Amplitude -->
<g id="node11" class="node">
<title>Amplitude</title>
<ellipse fill="none" stroke="#000000" cx="599.0485" cy="-630.6037" rx="47.8668" ry="18"/>
<text text-anchor="middle" x="599.0485" y="-626.4037" font-family="Times,serif" font-size="14.00" fill="#000000">Amplitude</text>
</g>
<!-- Amplitude&#45;&#45;calvinfo_com -->
<g id="edge8" class="edge">
<title>Amplitude&#45;&#45;calvinfo_com</title>
<path fill="none" stroke="#000000" d="M615.7672,-613.4049C647.2905,-580.9765 715.1911,-511.1261 746.9367,-478.4689"/>
</g>
<!-- Airtable -->
<g id="node12" class="node">
<title>Airtable</title>
<ellipse fill="none" stroke="#000000" cx="493.7736" cy="-614.8691" rx="39.1627" ry="18"/>
<text text-anchor="middle" x="493.7736" y="-610.6691" font-family="Times,serif" font-size="14.00" fill="#000000">Airtable</text>
</g>
<!-- Airtable&#45;&#45;calvinfo_com -->
<g id="edge9" class="edge">
<title>Airtable&#45;&#45;calvinfo_com</title>
<path fill="none" stroke="#000000" d="M518.7066,-600.6665C569.1305,-571.9436 682.9127,-507.13 735.861,-476.9691"/>
</g>
<!-- Javascript -->
<g id="node30" class="node">
<title>Javascript</title>
<ellipse fill="none" stroke="#000000" cx="256.0021" cy="-741.2008" rx="45.4355" ry="18"/>
<text text-anchor="middle" x="256.0021" y="-737.0008" font-family="Times,serif" font-size="14.00" fill="#000000">Javascript</text>
</g>
<!-- Airtable&#45;&#45;Javascript -->
<g id="edge27" class="edge">
<title>Airtable&#45;&#45;Javascript</title>
<path fill="none" stroke="#000000" d="M467.8753,-628.6293C422.6193,-652.6745 329.5685,-702.1139 283.3283,-726.682"/>
</g>
<!-- Leanplum -->
<g id="node13" class="node">
<title>Leanplum</title>
<ellipse fill="none" stroke="#000000" cx="1504.3182" cy="-156.7194" rx="45.92" ry="18"/>
<text text-anchor="middle" x="1504.3182" y="-152.5194" font-family="Times,serif" font-size="14.00" fill="#000000">Leanplum</text>
</g>
<!-- Leanplum&#45;&#45;sss -->
<g id="edge10" class="edge">
<title>Leanplum&#45;&#45;sss</title>
<path fill="none" stroke="#000000" d="M1492.9133,-174.4602C1469.131,-211.4543 1414.537,-296.377 1391.4047,-332.3601"/>
</g>
<!-- Chartbeat -->
<g id="node14" class="node">
<title>Chartbeat</title>
<ellipse fill="none" stroke="#000000" cx="565.2515" cy="-545.5188" rx="44.4664" ry="18"/>
<text text-anchor="middle" x="565.2515" y="-541.3188" font-family="Times,serif" font-size="14.00" fill="#000000">Chartbeat</text>
</g>
<!-- Chartbeat&#45;&#45;calvinfo_com -->
<g id="edge11" class="edge">
<title>Chartbeat&#45;&#45;calvinfo_com</title>
<path fill="none" stroke="#000000" d="M596.2976,-532.3082C632.425,-516.9354 691.9083,-491.6243 729.4498,-475.6497"/>
</g>
<!-- Facebook_Pixel -->
<g id="node17" class="node">
<title>Facebook_Pixel</title>
<ellipse fill="none" stroke="#000000" cx="1650.1269" cy="-203.741" rx="67.177" ry="18"/>
<text text-anchor="middle" x="1650.1269" y="-199.541" font-family="Times,serif" font-size="14.00" fill="#000000">Facebook_Pixel</text>
</g>
<!-- Facebook_Pixel&#45;&#45;sss -->
<g id="edge34" class="edge">
<title>Facebook_Pixel&#45;&#45;sss</title>
<path fill="none" stroke="#000000" d="M1620.0083,-219.9766C1564.9514,-249.6552 1449.3635,-311.9634 1401.8331,-337.585"/>
</g>
<!-- test -->
<g id="node18" class="node">
<title>test</title>
<ellipse fill="none" stroke="#000000" cx="1840.7857" cy="-78.3419" rx="27" ry="18"/>
<text text-anchor="middle" x="1840.7857" y="-74.1419" font-family="Times,serif" font-size="14.00" fill="#000000">test</text>
</g>
<!-- Facebook_Pixel&#45;&#45;test -->
<g id="edge15" class="edge">
<title>Facebook_Pixel&#45;&#45;test</title>
<path fill="none" stroke="#000000" d="M1675.84,-186.8291C1714.5663,-161.3582 1786.9949,-113.7209 1821.5228,-91.0114"/>
</g>
<!-- Slack -->
<g id="node35" class="node">
<title>Slack</title>
<ellipse fill="none" stroke="#000000" cx="1005.5451" cy="-17.5918" rx="29.5104" ry="18"/>
<text text-anchor="middle" x="1005.5451" y="-13.3918" font-family="Times,serif" font-size="14.00" fill="#000000">Slack</text>
</g>
<!-- Python&#45;&#45;Slack -->
<g id="edge35" class="edge">
<title>Python&#45;&#45;Slack</title>
<path fill="none" stroke="#000000" d="M1044.3126,-209.9075C1036.3056,-170.1871 1017.1477,-75.1497 1009.1493,-35.4715"/>
</g>
<!-- Indicative -->
<g id="node20" class="node">
<title>Indicative</title>
<ellipse fill="none" stroke="#000000" cx="1538.8454" cy="-409.6871" rx="45.4269" ry="18"/>
<text text-anchor="middle" x="1538.8454" y="-405.4871" font-family="Times,serif" font-size="14.00" fill="#000000">Indicative</text>
</g>
<!-- Indicative&#45;&#45;sss -->
<g id="edge17" class="edge">
<title>Indicative&#45;&#45;sss</title>
<path fill="none" stroke="#000000" d="M1506.0847,-397.1041C1475.6926,-385.4308 1431.2062,-368.3441 1404.213,-357.9764"/>
</g>
<!-- Marketo -->
<g id="node21" class="node">
<title>Marketo</title>
<ellipse fill="none" stroke="#000000" cx="825.6233" cy="-663.6839" rx="40.1317" ry="18"/>
<text text-anchor="middle" x="825.6233" y="-659.4839" font-family="Times,serif" font-size="14.00" fill="#000000">Marketo</text>
</g>
<!-- Marketo&#45;&#45;calvinfo_com -->
<g id="edge18" class="edge">
<title>Marketo&#45;&#45;calvinfo_com</title>
<path fill="none" stroke="#000000" d="M820.1499,-645.6945C808.4456,-607.2262 781.1008,-517.3523 769.4075,-478.92"/>
</g>
<!-- Facebook_Conversion_Tracking -->
<g id="node22" class="node">
<title>Facebook_Conversion_Tracking</title>
<ellipse fill="none" stroke="#000000" cx="1622.055" cy="-92.1005" rx="125.9396" ry="18"/>
<text text-anchor="middle" x="1622.055" y="-87.9005" font-family="Times,serif" font-size="14.00" fill="#000000">Facebook_Conversion_Tracking</text>
</g>
<!-- Facebook_Conversion_Tracking&#45;&#45;sss -->
<g id="edge40" class="edge">
<title>Facebook_Conversion_Tracking&#45;&#45;sss</title>
<path fill="none" stroke="#000000" d="M1605.0858,-110.1623C1559.919,-158.2371 1437.3416,-288.7064 1395.196,-333.5655"/>
</g>
<!-- Facebook_Conversion_Tracking&#45;&#45;test -->
<g id="edge19" class="edge">
<title>Facebook_Conversion_Tracking&#45;&#45;test</title>
<path fill="none" stroke="#000000" d="M1737.1853,-84.8586C1765.7971,-83.0588 1793.8812,-81.2923 1813.5755,-80.0534"/>
</g>
<!-- Optimizely_Web -->
<g id="node23" class="node">
<title>Optimizely_Web</title>
<ellipse fill="none" stroke="#000000" cx="1358.4515" cy="-893.9622" rx="70.1114" ry="18"/>
<text text-anchor="middle" x="1358.4515" y="-889.7622" font-family="Times,serif" font-size="14.00" fill="#000000">Optimizely_Web</text>
</g>
<!-- testthing -->
<g id="node24" class="node">
<title>testthing</title>
<ellipse fill="none" stroke="#000000" cx="1420.7225" cy="-846.9308" rx="40.6335" ry="18"/>
<text text-anchor="middle" x="1420.7225" y="-842.7308" font-family="Times,serif" font-size="14.00" fill="#000000">testthing</text>
</g>
<!-- Optimizely_Web&#45;&#45;testthing -->
<g id="edge20" class="edge">
<title>Optimizely_Web&#45;&#45;testthing</title>
<path fill="none" stroke="#000000" d="M1381.2853,-876.7165C1387.3945,-872.1024 1393.9637,-867.1409 1399.9547,-862.6161"/>
</g>
<!-- Librato -->
<g id="node26" class="node">
<title>Librato</title>
<ellipse fill="none" stroke="#000000" cx="736.6267" cy="-711.7816" rx="36.2732" ry="18"/>
<text text-anchor="middle" x="736.6267" y="-707.5816" font-family="Times,serif" font-size="14.00" fill="#000000">Librato</text>
</g>
<!-- Librato&#45;&#45;calvinfo_com -->
<g id="edge22" class="edge">
<title>Librato&#45;&#45;calvinfo_com</title>
<path fill="none" stroke="#000000" d="M738.5914,-693.7439C743.6199,-647.5798 756.9136,-525.5359 761.9627,-479.1821"/>
</g>
<!-- Gainsight -->
<g id="node27" class="node">
<title>Gainsight</title>
<ellipse fill="none" stroke="#000000" cx="1497.493" cy="-555.1486" rx="44.4923" ry="18"/>
<text text-anchor="middle" x="1497.493" y="-550.9486" font-family="Times,serif" font-size="14.00" fill="#000000">Gainsight</text>
</g>
<!-- Gainsight&#45;&#45;sss -->
<g id="edge24" class="edge">
<title>Gainsight&#45;&#45;sss</title>
<path fill="none" stroke="#000000" d="M1487.5382,-537.5689C1465.3689,-498.419 1412.1708,-404.4739 1390.3356,-365.914"/>
</g>
<!-- Millennial_Media -->
<g id="node28" class="node">
<title>Millennial_Media</title>
<ellipse fill="none" stroke="#000000" cx="1653.1586" cy="-357.4303" rx="73.9257" ry="18"/>
<text text-anchor="middle" x="1653.1586" y="-353.2303" font-family="Times,serif" font-size="14.00" fill="#000000">Millennial_Media</text>
</g>
<!-- Millennial_Media&#45;&#45;sss -->
<g id="edge25" class="edge">
<title>Millennial_Media&#45;&#45;sss</title>
<path fill="none" stroke="#000000" d="M1579.4367,-355.1377C1522.7088,-353.3736 1447.519,-351.0353 1407.8748,-349.8024"/>
</g>
<!-- Sherlock -->
<g id="node29" class="node">
<title>Sherlock</title>
<ellipse fill="none" stroke="#000000" cx="641.8635" cy="-682.7176" rx="41.5852" ry="18"/>
<text text-anchor="middle" x="641.8635" y="-678.5176" font-family="Times,serif" font-size="14.00" fill="#000000">Sherlock</text>
</g>
<!-- Sherlock&#45;&#45;calvinfo_com -->
<g id="edge26" class="edge">
<title>Sherlock&#45;&#45;calvinfo_com</title>
<path fill="none" stroke="#000000" d="M651.6477,-664.9459C674.5067,-623.4257 731.2107,-520.4307 754.1156,-478.8271"/>
</g>
<!-- AppNexus -->
<g id="node31" class="node">
<title>AppNexus</title>
<ellipse fill="none" stroke="#000000" cx="1581.2054" cy="-482.0879" rx="47.8668" ry="18"/>
<text text-anchor="middle" x="1581.2054" y="-477.8879" font-family="Times,serif" font-size="14.00" fill="#000000">AppNexus</text>
</g>
<!-- AppNexus&#45;&#45;sss -->
<g id="edge28" class="edge">
<title>AppNexus&#45;&#45;sss</title>
<path fill="none" stroke="#000000" d="M1557.4215,-466.2934C1517.2833,-439.6383 1436.8772,-386.242 1400.0088,-361.7583"/>
</g>
<!-- GoSquared -->
<g id="node32" class="node">
<title>GoSquared</title>
<ellipse fill="none" stroke="#000000" cx="1288.8489" cy="-161.7151" rx="49.7878" ry="18"/>
<text text-anchor="middle" x="1288.8489" y="-157.5151" font-family="Times,serif" font-size="14.00" fill="#000000">GoSquared</text>
</g>
<!-- GoSquared&#45;&#45;sss -->
<g id="edge30" class="edge">
<title>GoSquared&#45;&#45;sss</title>
<path fill="none" stroke="#000000" d="M1297.6593,-179.6688C1315.3122,-215.6417 1354.8109,-296.132 1372.218,-331.6041"/>
</g>
<!-- AutopilotHQ -->
<g id="node33" class="node">
<title>AutopilotHQ</title>
<ellipse fill="none" stroke="#000000" cx="56.3889" cy="-847.2559" rx="56.5631" ry="18"/>
<text text-anchor="middle" x="56.3889" y="-843.0559" font-family="Times,serif" font-size="14.00" fill="#000000">AutopilotHQ</text>
</g>
<!-- AutopilotHQ&#45;&#45;Javascript -->
<g id="edge31" class="edge">
<title>AutopilotHQ&#45;&#45;Javascript</title>
<path fill="none" stroke="#000000" d="M85.8425,-831.6071C124.3418,-811.1523 191.2572,-775.6 228.6751,-755.7197"/>
</g>
<!-- Bugsnag -->
<g id="node34" class="node">
<title>Bugsnag</title>
<ellipse fill="none" stroke="#000000" cx="1359.4495" cy="-537.993" rx="41.118" ry="18"/>
<text text-anchor="middle" x="1359.4495" y="-533.793" font-family="Times,serif" font-size="14.00" fill="#000000">Bugsnag</text>
</g>
<!-- Bugsnag&#45;&#45;sss -->
<g id="edge32" class="edge">
<title>Bugsnag&#45;&#45;sss</title>
<path fill="none" stroke="#000000" d="M1361.4904,-519.8676C1365.5587,-483.7353 1374.6362,-403.1161 1378.6995,-367.029"/>
</g>
<!-- QuanticMind -->
<g id="node36" class="node">
<title>QuanticMind</title>
<ellipse fill="none" stroke="#000000" cx="1465.3334" cy="-484.6209" rx="57.0305" ry="18"/>
<text text-anchor="middle" x="1465.3334" y="-480.4209" font-family="Times,serif" font-size="14.00" fill="#000000">QuanticMind</text>
</g>
<!-- QuanticMind&#45;&#45;sss -->
<g id="edge36" class="edge">
<title>QuanticMind&#45;&#45;sss</title>
<path fill="none" stroke="#000000" d="M1454.2736,-466.8854C1437.881,-440.5985 1407.346,-391.6328 1391.2644,-365.8445"/>
</g>
<!-- AdWords -->
<g id="node37" class="node">
<title>AdWords</title>
<ellipse fill="none" stroke="#000000" cx="1392.7941" cy="-187.9035" rx="43.577" ry="18"/>
<text text-anchor="middle" x="1392.7941" y="-183.7035" font-family="Times,serif" font-size="14.00" fill="#000000">AdWords</text>
</g>
<!-- AdWords&#45;&#45;sss -->
<g id="edge38" class="edge">
<title>AdWords&#45;&#45;sss</title>
<path fill="none" stroke="#000000" d="M1391.4341,-206.0655C1389.1179,-236.9973 1384.4331,-299.5611 1382.1077,-330.6157"/>
</g>
<!-- Webhooks -->
<g id="node38" class="node">
<title>Webhooks</title>
<ellipse fill="none" stroke="#000000" cx="668.9138" cy="-222.9184" rx="47.4515" ry="18"/>
<text text-anchor="middle" x="668.9138" y="-218.7184" font-family="Times,serif" font-size="14.00" fill="#000000">Webhooks</text>
</g>
<!-- Webhooks&#45;&#45;calvinfo_com -->
<g id="edge39" class="edge">
<title>Webhooks&#45;&#45;calvinfo_com</title>
<path fill="none" stroke="#000000" d="M676.0567,-240.811C693.6684,-284.9275 739.0222,-398.537 756.7206,-442.8706"/>
</g>
<!-- Zendesk -->
<g id="node39" class="node">
<title>Zendesk</title>
<ellipse fill="none" stroke="#000000" cx="1515.8711" cy="-240.5203" rx="40.1317" ry="18"/>
<text text-anchor="middle" x="1515.8711" y="-236.3203" font-family="Times,serif" font-size="14.00" fill="#000000">Zendesk</text>
</g>
<!-- Zendesk&#45;&#45;sss -->
<g id="edge41" class="edge">
<title>Zendesk&#45;&#45;sss</title>
<path fill="none" stroke="#000000" d="M1496.221,-256.2881C1469.868,-277.4346 1423.479,-314.6586 1398.2581,-334.8967"/>
</g>
<!-- Appcues -->
<g id="node40" class="node">
<title>Appcues</title>
<ellipse fill="none" stroke="#000000" cx="579.1624" cy="-309.1833" rx="41.1007" ry="18"/>
<text text-anchor="middle" x="579.1624" y="-304.9833" font-family="Times,serif" font-size="14.00" fill="#000000">Appcues</text>
</g>
<!-- Appcues&#45;&#45;calvinfo_com -->
<g id="edge42" class="edge">
<title>Appcues&#45;&#45;calvinfo_com</title>
<path fill="none" stroke="#000000" d="M598.5882,-325.1404C633.7069,-353.988 707.4409,-414.5555 743.3783,-444.0757"/>
</g>
<!-- Rockerbox__Deprecated_ -->
<g id="node41" class="node">
<title>Rockerbox__Deprecated_</title>
<ellipse fill="none" stroke="#000000" cx="1703.4482" cy="-435.678" rx="102.3642" ry="18"/>
<text text-anchor="middle" x="1703.4482" y="-431.478" font-family="Times,serif" font-size="14.00" fill="#000000">Rockerbox__Deprecated_</text>
</g>
<!-- Rockerbox__Deprecated_&#45;&#45;sss -->
<g id="edge43" class="edge">
<title>Rockerbox__Deprecated_&#45;&#45;sss</title>
<path fill="none" stroke="#000000" d="M1647.2357,-420.5726C1576.4463,-401.5501 1457.8349,-369.6769 1406.1244,-355.7812"/>
</g>
<!-- Keen -->
<g id="node42" class="node">
<title>Keen</title>
<ellipse fill="none" stroke="#000000" cx="768.0159" cy="-256.1402" rx="28.5325" ry="18"/>
<text text-anchor="middle" x="768.0159" y="-251.9402" font-family="Times,serif" font-size="14.00" fill="#000000">Keen</text>
</g>
<!-- Keen&#45;&#45;calvinfo_com -->
<g id="edge44" class="edge">
<title>Keen&#45;&#45;calvinfo_com</title>
<path fill="none" stroke="#000000" d="M767.6547,-274.3176C766.8825,-313.1877 765.0782,-404.0005 764.3067,-442.8343"/>
</g>
<!-- Alexa -->
<g id="node43" class="node">
<title>Alexa</title>
<ellipse fill="none" stroke="#000000" cx="1423.7947" cy="-802.2089" rx="31.4462" ry="18"/>
<text text-anchor="middle" x="1423.7947" y="-798.0089" font-family="Times,serif" font-size="14.00" fill="#000000">Alexa</text>
</g>
<!-- Alexa&#45;&#45;testthing -->
<g id="edge45" class="edge">
<title>Alexa&#45;&#45;testthing</title>
<path fill="none" stroke="#000000" d="M1422.5451,-820.399C1422.3524,-823.2042 1422.1535,-826.1001 1421.961,-828.9018"/>
</g>
<!-- Omniture -->
<g id="node44" class="node">
<title>Omniture</title>
<ellipse fill="none" stroke="#000000" cx="525.1878" cy="-472.4083" rx="43.9992" ry="18"/>
<text text-anchor="middle" x="525.1878" y="-468.2083" font-family="Times,serif" font-size="14.00" fill="#000000">Omniture</text>
</g>
<!-- Omniture&#45;&#45;calvinfo_com -->
<g id="edge46" class="edge">
<title>Omniture&#45;&#45;calvinfo_com</title>
<path fill="none" stroke="#000000" d="M568.9798,-470.3105C607.3477,-468.4726 663.4114,-465.7869 705.5824,-463.7667"/>
</g>
<!-- Kenshoo -->
<g id="node45" class="node">
<title>Kenshoo</title>
<ellipse fill="none" stroke="#000000" cx="1406.0546" cy="-121.6688" rx="41.5938" ry="18"/>
<text text-anchor="middle" x="1406.0546" y="-117.4688" font-family="Times,serif" font-size="14.00" fill="#000000">Kenshoo</text>
</g>
<!-- Kenshoo&#45;&#45;sss -->
<g id="edge47" class="edge">
<title>Kenshoo&#45;&#45;sss</title>
<path fill="none" stroke="#000000" d="M1404.0254,-139.8846C1399.2726,-182.548 1387.4654,-288.5353 1382.738,-330.9713"/>
</g>
<!-- Javascript8 -->
<g id="node46" class="node">
<title>Javascript8</title>
<ellipse fill="none" stroke="#000000" cx="1002.2381" cy="-577.6409" rx="49.7792" ry="18"/>
<text text-anchor="middle" x="1002.2381" y="-573.4409" font-family="Times,serif" font-size="14.00" fill="#000000">Javascript8</text>
</g>
<!-- Javascript6 -->
<g id="node47" class="node">
<title>Javascript6</title>
<ellipse fill="none" stroke="#000000" cx="946.2381" cy="-353.6409" rx="49.7792" ry="18"/>
<text text-anchor="middle" x="946.2381" y="-349.4409" font-family="Times,serif" font-size="14.00" fill="#000000">Javascript6</text>
</g>
<!-- Javascript5 -->
<g id="node48" class="node">
<title>Javascript5</title>
<ellipse fill="none" stroke="#000000" cx="1226.2381" cy="-297.6409" rx="49.7792" ry="18"/>
<text text-anchor="middle" x="1226.2381" y="-293.4409" font-family="Times,serif" font-size="14.00" fill="#000000">Javascript5</text>
</g>
<!-- Mandrill -->
<g id="node49" class="node">
<title>Mandrill</title>
<ellipse fill="none" stroke="#000000" cx="937.2381" cy="-241.6409" rx="41.1093" ry="18"/>
<text text-anchor="middle" x="937.2381" y="-237.4409" font-family="Times,serif" font-size="14.00" fill="#000000">Mandrill</text>
</g>
</g>
</svg>
